<svg id="Logo" xmlns="http://www.w3.org/2000/svg" xmlns:xlink="http://www.w3.org/1999/xlink" width="88.558" height="45.562" viewBox="0 0 88.558 45.562">
  <defs>
    <clipPath id="clip-path">
      <rect id="Rectangle_12" data-name="Rectangle 12" width="88.557" height="45.562" fill="#f4ebd4"/>
    </clipPath>
  </defs>
  <path id="Path_31" data-name="Path 31" d="M4.682,0,3.55,6.406,0,11.434l12.234,4.036L16.805,11.8l-.668-5.86Z" transform="translate(0 0)" fill="#f4ebd4"/>
  <g id="Group_9" data-name="Group 9" transform="translate(0.001)">
    <g id="Group_8" data-name="Group 8" clip-path="url(#clip-path)">
      <path id="Path_32" data-name="Path 32" d="M3.035,2.047A1.591,1.591,0,0,1,4.064,4.03a1.591,1.591,0,0,1-2.124.695A1.592,1.592,0,0,1,.911,2.739a1.593,1.593,0,0,1,2.124-.692" transform="translate(1.351 3.137)" fill="#f4ebd4"/>
      <path id="Path_33" data-name="Path 33" d="M43.65,18.993l-1.35.7.435,1.535L1.307,4.266l.915-2.235Z" transform="translate(2.159 3.354)" fill="#f4ebd4"/>
      <path id="Path_34" data-name="Path 34" d="M23.987,13.556l1.363-.734-.448-1.5,12.5,5.16-.915,2.235Z" transform="translate(39.617 18.696)" fill="#f4ebd4"/>
      <path id="Path_35" data-name="Path 35" d="M43.719,22.395,31.384,11.309l-3.436,4.63-.8,5.709Z" transform="translate(44.839 18.677)" fill="#f4ebd4"/>
      <path id="Path_36" data-name="Path 36" d="M54.525,12.7C53.934,7.132,50.4,2.243,44.608,1.41A11.533,11.533,0,0,0,42.98,1.3a11.363,11.363,0,0,0-4.221.806,16.046,16.046,0,0,0-4.651,3.23c-.817.742-1.808,1.739-2.371,2.36a29.485,29.485,0,0,0-6.279-4.786A12.5,12.5,0,0,0,19.79,1.3,10.56,10.56,0,0,0,12.445,4.61C8.894,8.14,7.94,13.5,9.08,18.253c1.472,6.136,6.594,9.872,10.943,14.008l.072.069q5.827,5.548,11.659,11.092s6.435-6.014,9.527-9.1c4.1-4.1,14.263-12.033,13.245-21.624M41.294,29.71c-1.511,1.5-3.049,2.964-4.539,4.449-.2.2-3.235,3.317-3.383,3.174-.838-.8-3.185-2.882-4.022-3.678-2.333-2.217-4.712-4.484-7.064-6.716a58.85,58.85,0,0,1-6.647-6.687C14.1,18.237,12.4,15.5,12.376,12.878a8.246,8.246,0,0,1,1.6-5.412A7.215,7.215,0,0,1,19.612,4.7a10.9,10.9,0,0,1,6.929,2.731,22.208,22.208,0,0,1,5.171,5.656,26.866,26.866,0,0,1,3.1-3.474C36.55,8.1,39.175,6.448,41.776,6.448c4.953,0,7.833,3.688,8.313,8.2.448,4.232-1.413,6.99-4.073,10.076-1.485,1.724-3.089,3.367-4.722,4.982" transform="translate(14.243 2.14)" fill="#f4ebd4"/>
    </g>
  </g>
</svg>
