<svg xmlns="http://www.w3.org/2000/svg" xmlns:xlink="http://www.w3.org/1999/xlink" width="198.351" height="35" viewBox="0 0 198.351 35">
  <defs>
    <clipPath id="clip-path">
      <rect id="Rectangle_11" data-name="Rectangle 11" width="198.351" height="35" fill="none"/>
    </clipPath>
  </defs>
  <g id="Group_6" data-name="Group 6" transform="translate(0 0)">
    <g id="Group_5" data-name="Group 5" transform="translate(0 0)" clip-path="url(#clip-path)">
      <path id="Path_21" data-name="Path 21" d="M0,30.168V26.224H8.116V22.986L0,23.083V19.1H19.634v3.983l-8.66-.1v3.295l8.657-.106v3.993Z" transform="translate(0 -6.922)" fill="#e51f1f"/>
      <path id="Path_22" data-name="Path 22" d="M19.641,8.87H0V.562L2.973,2.368V5.088H8.115V.994l2.873,1.519V5.1h5.7V.4l2.955,1.548Z" transform="translate(-0.002 -0.146)" fill="#e51f1f"/>
      <path id="Path_23" data-name="Path 23" d="M19.637,42.445v3.941H2.934c.03,1.262.059,1.845.089,3.109L0,48.1V40l2.971.02v2.427c5.541.121,11.087.1,16.666,0" transform="translate(0 -14.495)" fill="#e51f1f"/>
      <path id="Path_24" data-name="Path 24" d="M68.061,31.948c-1.346,0-2.755,0-4.165,0-.085,0-.169-.017-.3-.031,0-.2,0-.392,0-.579q.11-13.788.21-27.577A6.65,6.65,0,0,0,63.485.4h7.582Q74.5,10.768,77.931,21.137l.216-.036Q78,10.774,77.862.415h4.409V31.738l-6.893.464Q71.7,20.971,68.032,9.774l-.087.016c0,2.447-.015,4.9,0,7.343s.087,4.9.106,7.356,0,4.929,0,7.46" transform="translate(-23.005 -0.146)" fill="#e51f1f"/>
      <path id="Path_25" data-name="Path 25" d="M178.209,32.218l-4.447-13.2V31.931h-6.3V.418c.314-.02.662-.055,1.011-.061,2.5-.047,5-.125,7.5-.115a8.371,8.371,0,0,1,4.29,1.011,6.5,6.5,0,0,1,3.336,5.11,8.907,8.907,0,0,1-2.611,7.428,22.97,22.97,0,0,1-1.776,1.5c1.58,5.551,3.707,10.983,5.846,16.464l-6.847.465M173.747,5.271V15.2c.414-.106.791-.236,1.179-.3a2.34,2.34,0,0,0,1.741-1.393,7.62,7.62,0,0,0,.895-3.678,6.68,6.68,0,0,0-.673-3.235,2.839,2.839,0,0,0-3.142-1.328" transform="translate(-60.684 -0.087)" fill="#e51f1f"/>
      <path id="Path_26" data-name="Path 26" d="M256.623.236h6.369q-.088,6.306-.176,12.573l.186.036c1.578-4.193,3.157-8.387,4.754-12.63L273.227,0l-5.933,13.192,6.683,18.375-6.537.46-4.435-13.418-.184.027c.059,4.359.117,8.718.176,13.11h-6.374Z" transform="translate(-92.993 0)" fill="#e51f1f"/>
      <path id="Path_27" data-name="Path 27" d="M113.847,27.168V19.426H109.78c1.16-1.535,2.29-3.027,3.422-4.522h6.942V28.8c-2.023,1.288-4.083,2.676-6.222,3.931a5.825,5.825,0,0,1-3.628.448,7.287,7.287,0,0,1-5.176-2.869,12.276,12.276,0,0,1-2.157-4.546,26.242,26.242,0,0,1-.5-7.53,56.541,56.541,0,0,1,.844-8.4c.213-1.108.5-2.2.763-3.3a.715.715,0,0,1,.187-.336,30.744,30.744,0,0,1,6.129-4.724A3.923,3.923,0,0,1,112.52.905a9.1,9.1,0,0,1,3.556.483A4.987,4.987,0,0,1,119.1,5.382c.08.55.092,1.108.138,1.7L113.35,9.756a19.192,19.192,0,0,0-.672-2.507,2.5,2.5,0,0,0-3.134-1.287c-.214,1.053-.494,2.162-.659,3.288a52.711,52.711,0,0,0-.37,11.292,11.41,11.41,0,0,0,1.272,4.86,3.427,3.427,0,0,0,4.06,1.767" transform="translate(-37.109 -0.327)" fill="#e51f1f"/>
      <path id="Path_28" data-name="Path 28" d="M289.3,26.69l5.92-2.362a5.086,5.086,0,0,0,1.1,3.038,3.062,3.062,0,0,0,.744.385c.5-2,.9-3.918.052-5.838a3.794,3.794,0,0,0-1.8-1.745c-.736-.393-1.5-.735-2.248-1.106-2.507-1.245-3.517-3.372-3.657-6.062a17.56,17.56,0,0,1,1.365-7.763.831.831,0,0,1,.254-.342c1.817-1.328,3.641-2.647,5.453-3.962,4.115-.024,6.3,2.419,6.372,6.018l-5.764,2.878c-.31-1.278-.24-2.721-1.835-3.309a22.659,22.659,0,0,0-.214,4.759,2.338,2.338,0,0,0,1.311,1.908c1.114.594,2.238,1.167,3.351,1.763a6.531,6.531,0,0,1,3.455,5.8A19.556,19.556,0,0,1,302,28.34a2.587,2.587,0,0,1-.786.909q-2.072,1.877-4.172,3.722a.979.979,0,0,1-.5.247,8.132,8.132,0,0,1-4.154-.466,4.685,4.685,0,0,1-2.664-3.358,25.576,25.576,0,0,1-.425-2.7" transform="translate(-104.834 -0.338)" fill="#e51f1f"/>
      <path id="Path_29" data-name="Path 29" d="M138.682,32.624V1.114H152.01l-2.9,4.757h-4.372v8.255h6.582l-2.445,4.611h-4.14v9.137h7.537l-2.49,4.751Z" transform="translate(-50.255 -0.404)" fill="#e51f1f"/>
      <path id="Path_30" data-name="Path 30" d="M238.922,25.106l.589.388c-1.22,2-2.1,4.154-3.726,5.84a3.934,3.934,0,0,1-2.36,1.083,9.949,9.949,0,0,1-4.58-.237,7.344,7.344,0,0,1-4.049-3.155,14.165,14.165,0,0,1-2.036-6.3,43.764,43.764,0,0,1-.067-8.311,51.129,51.129,0,0,1,1.225-8.083,1.289,1.289,0,0,1,.324-.605,27.535,27.535,0,0,1,7-5.07,6.122,6.122,0,0,1,3.284-.275A5.46,5.46,0,0,1,239.3,6.371l-6.052,3.043c-.027-.546-.012-1.056-.086-1.551a2.875,2.875,0,0,0-3.624-2.5c-.131.89-.281,1.8-.4,2.712a72.492,72.492,0,0,0-.527,9.754,17.008,17.008,0,0,0,.615,4.92c.538,1.742,1.478,3.251,3.331,3.76,2.183.6,4.325.5,6.106-1.192.063-.061.134-.113.256-.214" transform="translate(-80.638 -0.103)" fill="#e51f1f"/>
      <rect id="Rectangle_9" data-name="Rectangle 9" width="6.112" height="31.527" transform="translate(27.061 0.346)" fill="#e51f1f"/>
      <rect id="Rectangle_10" data-name="Rectangle 10" width="6.092" height="31.522" transform="translate(129.766 1.063)" fill="#e51f1f"/>
    </g>
  </g>
</svg>
