<?xml version="1.0" encoding="utf-8"?>
<!-- Generator: Adobe Illustrator 26.3.1, SVG Export Plug-In . SVG Version: 6.00 Build 0)  -->
<svg version="1.1" id="Layer_1" xmlns="http://www.w3.org/2000/svg" xmlns:xlink="http://www.w3.org/1999/xlink" x="0px" y="0px"
	 viewBox="0 0 198.4 35" width="198.351" height="35" style="enable-background:new 0 0 198.4 35;" xml:space="preserve">
<style type="text/css">
	.st0{clip-path:url(#SVGID_00000034780132801119077950000010039713529294014117_);}
	.st1{fill:#D51F26;}
</style>
<g id="Group_6" transform="translate(0 0)">
	<g>
		<defs>
			<rect id="SVGID_1_" width="198.4" height="35"/>
		</defs>
		<clipPath id="SVGID_00000081622318092039974140000010140366578433607085_">
			<use xlink:href="#SVGID_1_"  style="overflow:visible;"/>
		</clipPath>
		<g id="Group_5" transform="translate(0 0)" style="clip-path:url(#SVGID_00000081622318092039974140000010140366578433607085_);">
			<path id="Path_21" class="st1" d="M0,23.2v-3.9h8.1v-3.2L0,16.2v-4h19.6v4L11,16.1v3.3l8.7-0.1v4L0,23.2z"/>
			<path id="Path_22" class="st1" d="M19.6,8.7H0V0.4l3,1.8v2.7h5.1V0.8L11,2.4V5h5.7V0.3l3,1.5L19.6,8.7z"/>
			<path id="Path_23" class="st1" d="M19.6,28v3.9H2.9C3,33.2,3,33.7,3,35l-3-1.4v-8.1l3,0V28C8.5,28.1,14.1,28.1,19.6,28"/>
			<path id="Path_24" class="st1" d="M45.1,31.8c-1.3,0-2.8,0-4.2,0c-0.1,0-0.2,0-0.3,0c0-0.2,0-0.4,0-0.6
				c0.1-9.2,0.1-18.4,0.2-27.6c0.2-1.1,0.1-2.3-0.3-3.4h7.6c2.3,6.9,4.6,13.8,6.9,20.7l0.2,0C55,14.1,54.9,7.2,54.9,0.3h4.4v31.3
				l-6.9,0.5c-2.5-7.5-4.9-15-7.3-22.4l-0.1,0c0,2.4,0,4.9,0,7.3s0.1,4.9,0.1,7.4S45,29.3,45.1,31.8"/>
			<path id="Path_25" class="st1" d="M117.5,32.1l-4.4-13.2v12.9h-6.3V0.3c0.3,0,0.7-0.1,1-0.1c2.5,0,5-0.1,7.5-0.1
				c1.5-0.1,3,0.3,4.3,1c1.9,1,3.1,3,3.3,5.1c0.3,2.7-0.6,5.5-2.6,7.4c-0.6,0.5-1.2,1-1.8,1.5c1.6,5.6,3.7,11,5.8,16.5L117.5,32.1
				 M113.1,5.2v9.9c0.4-0.1,0.8-0.2,1.2-0.3c0.8-0.1,1.4-0.7,1.7-1.4c0.6-1.1,0.9-2.4,0.9-3.7c0.1-1.1-0.2-2.2-0.7-3.2
				C115.6,5.4,114.3,4.9,113.1,5.2"/>
			<path id="Path_26" class="st1" d="M163.6,0.2h6.4c-0.1,4.2-0.1,8.4-0.2,12.6l0.2,0c1.6-4.2,3.2-8.4,4.8-12.6l5.5-0.2l-5.9,13.2
				l6.7,18.4l-6.5,0.5L170,18.6l-0.2,0c0.1,4.4,0.1,8.7,0.2,13.1h-6.4L163.6,0.2z"/>
			<path id="Path_27" class="st1" d="M76.7,26.8v-7.7h-4.1c1.2-1.5,2.3-3,3.4-4.5H83v13.9c-2,1.3-4.1,2.7-6.2,3.9
				c-1.1,0.5-2.4,0.7-3.6,0.4c-2.1-0.2-3.9-1.2-5.2-2.9c-1-1.4-1.8-2.9-2.2-4.5c-0.5-2.5-0.7-5-0.5-7.5c0.1-2.8,0.4-5.6,0.8-8.4
				c0.2-1.1,0.5-2.2,0.8-3.3c0-0.1,0.1-0.2,0.2-0.3C69,4,71,2.5,73.3,1.1c0.6-0.4,1.4-0.6,2.1-0.6c1.2-0.1,2.4,0.1,3.6,0.5
				c1.7,0.7,2.8,2.2,3,4c0.1,0.6,0.1,1.1,0.1,1.7l-5.9,2.7c-0.2-0.8-0.4-1.7-0.7-2.5c-0.6-1.2-1.9-1.7-3.1-1.3
				c-0.2,1.1-0.5,2.2-0.7,3.3c-0.5,3.7-0.7,7.5-0.4,11.3c0.1,1.7,0.5,3.4,1.3,4.9C73.4,26.6,75.1,27.3,76.7,26.8"/>
			<path id="Path_28" class="st1" d="M184.5,26.4l5.9-2.4c0,1.1,0.4,2.2,1.1,3c0.2,0.2,0.5,0.3,0.7,0.4c0.5-2,0.9-3.9,0.1-5.8
				c-0.4-0.8-1-1.4-1.8-1.7c-0.7-0.4-1.5-0.7-2.2-1.1c-2.5-1.2-3.5-3.4-3.7-6.1c-0.1-2.7,0.3-5.3,1.4-7.8c0.1-0.1,0.1-0.3,0.3-0.3
				c1.8-1.3,3.6-2.6,5.5-4c4.1,0,6.3,2.4,6.4,6l-5.8,2.9c-0.3-1.3-0.2-2.7-1.8-3.3c-0.2,1.6-0.3,3.2-0.2,4.8
				c0.1,0.8,0.6,1.5,1.3,1.9c1.1,0.6,2.2,1.2,3.4,1.8c2.1,1.1,3.5,3.4,3.5,5.8c0.1,2.6-0.3,5.2-1.2,7.6c-0.2,0.4-0.5,0.7-0.8,0.9
				c-1.4,1.3-2.8,2.5-4.2,3.7c-0.1,0.1-0.3,0.2-0.5,0.2c-1.4,0.2-2.8,0-4.2-0.5c-1.4-0.6-2.4-1.9-2.7-3.4
				C184.7,28.2,184.6,27.3,184.5,26.4"/>
			<path id="Path_29" class="st1" d="M88.4,32.2V0.7h13.3l-2.9,4.8h-4.4v8.3h6.6l-2.4,4.6h-4.1v9.1h7.5l-2.5,4.8L88.4,32.2z"/>
			<path id="Path_30" class="st1" d="M158.3,25l0.6,0.4c-1.2,2-2.1,4.2-3.7,5.8c-0.6,0.6-1.5,1-2.4,1.1c-1.5,0.3-3.1,0.2-4.6-0.2
				c-1.7-0.5-3.1-1.7-4-3.2c-1.2-1.9-1.9-4.1-2-6.3c-0.3-2.8-0.3-5.5-0.1-8.3c0.2-2.7,0.6-5.4,1.2-8.1c0.1-0.2,0.2-0.4,0.3-0.6
				c2.1-2,4.4-3.8,7-5.1c1-0.4,2.2-0.5,3.3-0.3c3,0.4,5.1,3,4.8,6l-6.1,3c0-0.5,0-1.1-0.1-1.6c-0.2-1.6-1.6-2.7-3.1-2.6
				c-0.2,0-0.3,0-0.5,0.1c-0.1,0.9-0.3,1.8-0.4,2.7c-0.4,3.2-0.6,6.5-0.5,9.8c0,1.7,0.2,3.3,0.6,4.9c0.5,1.7,1.5,3.3,3.3,3.8
				c2.2,0.6,4.3,0.5,6.1-1.2C158.1,25.2,158.2,25.1,158.3,25"/>
			<rect id="Rectangle_9" x="27.1" y="0.3" class="st1" width="6.1" height="31.5"/>
			<rect id="Rectangle_10" x="129.8" y="1.1" class="st1" width="6.1" height="31.5"/>
		</g>
	</g>
</g>
</svg>
