<svg id="Group_12" data-name="Group 12" xmlns="http://www.w3.org/2000/svg" xmlns:xlink="http://www.w3.org/1999/xlink" width="847.294" height="114.642" viewBox="0 0 847.294 114.642">
  <defs>
    <clipPath id="clip-path">
      <rect id="Rectangle_16" data-name="Rectangle 16" width="847.294" height="114.642" fill="none"/>
    </clipPath>
  </defs>
  <g id="Group_11" data-name="Group 11" clip-path="url(#clip-path)">
    <path id="Path_37" data-name="Path 37" d="M103.96,1.093h22.418V47.222h18.4q-.274-22.985-.548-46.113h22.628v111.58h-22.64c.186-16.419.373-32.771.56-49.218H126.051c.2,16.415.4,32.76.6,49.206h-22.7Z" transform="translate(-25.222 -0.265)" fill="#f4ebd4"/>
    <path id="Path_38" data-name="Path 38" d="M214.786,112.726V1.114H262L251.746,17.987H236.282V47.212h23.272l-8.637,16.326H236.242V95.93h26.671l-8.8,16.8Z" transform="translate(-52.11 -0.27)" fill="#f4ebd4"/>
    <path id="Path_39" data-name="Path 39" d="M43.647,112.707h-22.4V17.766L0,18.274,7.935,1.092h57.96L56.409,17.979H43.628c-.686,31.494-.568,63.016.02,94.729" transform="translate(0 -0.265)" fill="#f4ebd4"/>
    <path id="Path_40" data-name="Path 40" d="M421.522,112.777c-4.765,0-9.756,0-14.747,0-.3,0-.6-.06-1.048-.108,0-.726,0-1.388,0-2.05q.391-48.817.745-97.636c.023-3.947.882-8-1.15-11.889h26.844l24.3,73.411.767-.126q-.506-36.566-1.013-73.238h15.612v110.9l-24.4,1.639L421.42,34.27l-.307.055c0,8.665-.053,17.332.015,26,.068,8.681.311,17.362.378,26.044.068,8.725.015,17.452.015,26.41" transform="translate(-98.336 -0.264)" fill="#f4ebd4"/>
    <path id="Path_41" data-name="Path 41" d="M745.409,113.466,729.666,66.735V112.45h-22.3V.879c1.112-.07,2.344-.193,3.579-.216C719.79.5,728.64.221,737.489.254c5.285.02,10.543.847,15.189,3.579A23.006,23.006,0,0,1,764.49,21.924c1.08,10.151-2.142,18.973-9.245,26.3a81.625,81.625,0,0,1-6.289,5.309c5.593,19.653,13.122,38.885,20.7,58.289l-24.243,1.646m-15.8-95.4V53.223c1.468-.376,2.8-.836,4.174-1.047,3.039-.468,4.807-2.392,6.166-4.934a26.989,26.989,0,0,0,3.167-13.022c-.018-3.947-.431-7.831-2.384-11.455-2-3.719-6.441-5.679-11.123-4.7" transform="translate(-171.615 -0.061)" fill="#f4ebd4"/>
    <path id="Path_42" data-name="Path 42" d="M963.073.836h22.55q-.312,22.326-.623,44.512l.659.13L1002.49.763,1021.858,0l-21.007,46.707,23.662,65.057-23.145,1.628-15.7-47.507-.652.1c.207,15.433.414,30.866.623,46.415H963.073Z" transform="translate(-233.654)" fill="#f4ebd4"/>
    <path id="Path_43" data-name="Path 43" d="M556.229,93V65.585h-14.4l12.114-16.01h24.578V98.769c-7.16,4.56-14.455,9.476-22.029,13.918-3.87,2.269-8.469,2.055-12.844,1.587a25.794,25.794,0,0,1-18.326-10.157,43.465,43.465,0,0,1-7.636-16.094c-2.21-8.775-2.126-17.716-1.765-26.663a200.112,200.112,0,0,1,2.988-29.753c.753-3.922,1.771-7.793,2.7-11.678a2.531,2.531,0,0,1,.663-1.188c6.651-6.325,13.627-12.217,21.7-16.724a13.889,13.889,0,0,1,7.556-2c4.254.184,8.613-.137,12.591,1.709,6.027,2.8,9.748,7.484,10.709,14.142.28,1.944.324,3.923.486,6L554.471,31.35c-.788-3.045-1.235-6.1-2.38-8.877-1.692-4.1-6.73-6.114-11.1-4.554-.759,3.726-1.75,7.653-2.334,11.639a186.474,186.474,0,0,0-1.309,39.976c.412,5.961,1.516,11.852,4.5,17.209C544.9,92.2,550.489,94.716,556.229,93" transform="translate(-125.122 0)" fill="#f4ebd4"/>
    <path id="Path_44" data-name="Path 44" d="M1053.794,91.285l20.96-8.363c.678,3.939.948,7.878,3.887,10.756a10.888,10.888,0,0,0,2.635,1.364c1.78-7.077,3.2-13.871.182-20.669-1.266-2.858-3.686-4.739-6.386-6.177-2.608-1.389-5.309-2.6-7.956-3.916-8.877-4.411-12.454-11.939-12.947-21.463A62.184,62.184,0,0,1,1059,15.332a2.945,2.945,0,0,1,.9-1.212c6.435-4.7,12.891-9.374,19.307-14.026,14.568-.086,22.3,8.562,22.561,21.305l-20.406,10.191c-1.1-4.525-.85-9.633-6.5-11.718-.616,5.789-1.335,11.287-.755,16.85a8.276,8.276,0,0,0,4.642,6.757c3.942,2.1,7.924,4.134,11.865,6.24,8.2,4.382,11.668,11.633,12.232,20.519.586,9.241-1.12,18.184-4.088,26.886-.426,1.247-1.73,2.264-2.782,3.217q-7.333,6.646-14.771,13.178a3.479,3.479,0,0,1-1.764.876c-5.02.553-10,.354-14.708-1.652-5.248-2.237-8.043-6.634-9.431-11.889a90.534,90.534,0,0,1-1.506-9.572" transform="translate(-255.664 -0.023)" fill="#f4ebd4"/>
    <path id="Path_45" data-name="Path 45" d="M623.389,112.719V1.158h47.185c-3.489,5.733-6.926,11.377-10.25,16.84H644.846V47.225h23.3l-8.658,16.324H644.834V95.9H671.52l-8.814,16.822Z" transform="translate(-151.242 -0.281)" fill="#f4ebd4"/>
    <path id="Path_46" data-name="Path 46" d="M923.469,88.072l2.084,1.375c-4.322,7.071-7.429,14.706-13.193,20.677a13.936,13.936,0,0,1-8.355,3.832c-5.453.813-10.888.873-16.217-.84a25.993,25.993,0,0,1-14.334-11.17c-4.345-6.821-6.389-14.353-7.208-22.322a155.059,155.059,0,0,1-.237-29.423,180.906,180.906,0,0,1,4.336-28.619,4.563,4.563,0,0,1,1.147-2.142c7.5-7.023,15.379-13.522,24.789-17.951,3.815-1.8,7.675-1.306,11.626-.973,11.065.933,17.7,11.393,16.9,21.227L903.383,32.519c-.1-1.935-.043-3.738-.306-5.495-.977-6.529-5.913-9.968-12.829-8.844-.465,3.153-.994,6.371-1.406,9.605a256.6,256.6,0,0,0-1.867,34.535c.046,5.882.43,11.763,2.176,17.418,1.9,6.167,5.233,11.512,11.793,13.313,7.728,2.12,15.313,1.77,21.617-4.219.225-.213.476-.4.908-.758" transform="translate(-209.962 -0.047)" fill="#f4ebd4"/>
    <rect id="Rectangle_14" data-name="Rectangle 14" width="21.639" height="111.621" transform="translate(263.81 0.822)" fill="#f4ebd4"/>
    <rect id="Rectangle_15" data-name="Rectangle 15" width="21.568" height="111.601" transform="translate(613.505 0.823)" fill="#f4ebd4"/>
  </g>
</svg>
